<svg width="514" height="273" xmlns="http://www.w3.org/2000/svg" xmlns:xlink="http://www.w3.org/1999/xlink" overflow="hidden"><defs><clipPath id="clip0"><rect x="0" y="0" width="514" height="273"/></clipPath></defs><g clip-path="url(#clip0)"><path d="M0 0 623.998 0 623.998 350.999 0 350.999Z" stroke="#00B0F0" stroke-width="0.779998" fill="#000028" transform="matrix(1 0 0 1.00003 -17.9961 -48.0039)"/><text fill="#FFFFFF" font-family="Arial,Arial_MSFontService,sans-serif" font-weight="700" font-size="27" transform="matrix(0.779998 0 0 0.780018 -12.4806 -29)">Analytic <tspan fill="#00A178" font-size="27" x="110.937" y="0">Portfolio framework</tspan><tspan font-size="27" x="370" y="0">to support Digital Asset </tspan><tspan font-size="27" x="0" y="28.2045">Management</tspan><tspan font-size="8" x="19.9079" y="408.965">Page </tspan><tspan font-size="8" x="39.9079" y="408.965">33</tspan></text><path d="M609.958 88.1398 609.958 313.559 542.099 88.1398Z" stroke="#00B0F0" stroke-width="0.779998" fill="#009999" fill-rule="evenodd" transform="matrix(1 0 0 1.00003 -17.9961 -48.0039)"/><text fill="#FFFFFF" font-family="Arial,Arial_MSFontService,sans-serif" font-weight="400" font-size="13" transform="matrix(0.779998 0 0 0.780018 528.891 263)">Off the Shelf<tspan font-size="13" x="20.5943" y="-306.403">High</tspan><tspan font-size="13" x="-8.30988" y="-291.019">Customization</tspan></text><path d="M532.349 58.8899 615.808 58.8899 615.808 318.629 532.349 318.629Z" stroke="#00B0F0" stroke-width="0.649998" stroke-miterlimit="8" fill="none" transform="matrix(1 0 0 1.00003 -17.9961 -48.0039)"/><path d="M21.4499 58.8899 225.809 58.8899 225.809 318.629 21.4499 318.629Z" stroke="#00B0F0" stroke-width="0.649998" stroke-miterlimit="8" fill="none" transform="matrix(1 0 0 1.00003 -17.9961 -48.0039)"/><text fill="#FFFFFF" font-family="Arial,Arial_MSFontService,sans-serif" font-weight="400" font-size="15" transform="matrix(0.779998 0 0 0.780018 8.53607 26)">Business Intelligence</text><path d="M230.489 58.8899 498.029 58.8899 498.029 318.629 230.489 318.629Z" stroke="#00B0F0" stroke-width="0.649998" stroke-miterlimit="8" fill="none" transform="matrix(1 0 0 1.00003 -17.9961 -48.0039)"/><text fill="#FFFFFF" font-family="Arial,Arial_MSFontService,sans-serif" font-weight="400" font-size="15" transform="matrix(0.779998 0 0 0.780018 217.937 26)">Analytics</text><path d="M501.539 81.1198 525.719 81.1198 525.719 313.559 501.539 313.559Z" stroke="#00B0F0" stroke-width="0.779998" fill="#00D7A0" transform="matrix(1 0 0 1.00003 -17.9961 -48.0039)"/><text fill="#FFFFFF" font-family="Arial,Arial_MSFontService,sans-serif" font-weight="400" font-size="13" transform="matrix(4.77611e-17 -0.780018 0.779998 4.77623e-17 499.323 262)">Analytical Use Case Consulting</text><path d="M467.219 81.1198 491.399 81.1198 491.399 313.559 467.219 313.559Z" stroke="#00B0F0" stroke-width="0.779998" fill="#00D7A0" transform="matrix(1 0 0 1.00003 -17.9961 -48.0039)"/><text fill="#FFFFFF" font-family="Arial,Arial_MSFontService,sans-serif" font-weight="400" font-size="13" transform="matrix(4.77611e-17 -0.780018 0.779998 4.77623e-17 464.901 259)">Analytics Core Service</text><path d="M195.78 81.1198 219.179 81.1198 219.179 251.159 195.78 251.159Z" stroke="#00B0F0" stroke-width="0.779998" fill="#00D7A0" transform="matrix(1 0 0 1.00003 -17.9961 -48.0039)"/><text fill="#FFFFFF" font-family="Arial,Arial_MSFontService,sans-serif" font-weight="400" font-size="13" transform="matrix(4.77611e-17 -0.780018 0.779998 4.77623e-17 193.063 199)">Professional BI Service</text><path d="M28.0799 258.959 219.179 258.959 219.179 313.559 28.0799 313.559Z" stroke="#00B0F0" stroke-width="1.4625" stroke-miterlimit="8" fill="none" transform="matrix(1 0 0 1.00003 -17.9961 -48.0039)"/><text fill="#FFFFFF" font-family="Arial,Arial_MSFontService,sans-serif" font-weight="400" font-size="10" transform="matrix(0.779998 0 0 0.780018 15.9866 223)">Standard Reports</text><path d="M28.0799 81.1198 188.76 81.1198 188.76 102.96 28.0799 102.96Z" stroke="#00B0F0" stroke-width="0.779998" fill="#00BEDC" transform="matrix(1 0 0 1.00003 -17.9961 -48.0039)"/><text fill="#FFFFFF" font-family="Arial,Arial_MSFontService,sans-serif" font-weight="700" font-size="10" transform="matrix(0.779998 0 0 0.780018 15.7369 45)">Fully Customized Reports</text><path d="M28.0799 107.64 188.76 107.64 188.76 251.159 28.0799 251.159Z" stroke="#00B0F0" stroke-width="1.4625" stroke-miterlimit="8" fill="none" transform="matrix(1 0 0 1.00003 -17.9961 -48.0039)"/><text fill="#FFFFFF" font-family="Arial,Arial_MSFontService,sans-serif" font-weight="400" font-size="10" transform="matrix(0.779998 0 0 0.780018 15.8492 71)">Configurable Report Features</text><path d="M234.779 81.1198 460.979 81.1198 460.979 102.96 234.779 102.96Z" stroke="#00B0F0" stroke-width="0.779998" fill="#00BEDC" transform="matrix(1 0 0 1.00003 -17.9961 -48.0039)"/><text fill="#FFFFFF" font-family="Arial,Arial_MSFontService,sans-serif" font-weight="700" font-size="10" transform="matrix(0.779998 0 0 0.780018 222.482 45)">Algorithmic API<tspan font-size="10" x="76" y="0">‘</tspan>s</text><path d="M234.779 107.64 460.979 107.64 460.979 251.159 234.779 251.159Z" stroke="#00B0F0" stroke-width="1.4625" stroke-miterlimit="8" fill="none" transform="matrix(1 0 0 1.00003 -17.9961 -48.0039)"/><text fill="#FFFFFF" font-family="Arial,Arial_MSFontService,sans-serif" font-weight="400" font-size="10" transform="matrix(0.779998 0 0 0.780018 354.617 71)">Configurable Algorithms</text><path d="M233.999 258.179 460.199 258.179 460.199 313.559 233.999 313.559Z" stroke="#00B0F0" stroke-width="1.4625" stroke-miterlimit="8" fill="none" transform="matrix(1 0 0 1.00003 -17.9961 -48.0039)"/><text fill="#FFFFFF" font-family="Arial,Arial_MSFontService,sans-serif" font-weight="400" font-size="10" transform="matrix(0.779998 0 0 0.780018 221.847 222)">Use Case specific Algorithms</text><path d="M31.1999 283.139C31.1999 280.554 33.2952 278.459 35.88 278.459L70.9797 278.459C73.5645 278.459 75.6598 280.554 75.6598 283.139L75.6598 301.859C75.6598 304.444 73.5645 306.539 70.9797 306.539L35.88 306.539C33.2952 306.539 31.1999 304.444 31.1999 301.859Z" stroke="#00B0F0" stroke-width="0.779998" fill="#009999" fill-rule="evenodd" transform="matrix(1 0 0 1.00003 -17.9961 -48.0039)"/><text fill="#FFFFFF" font-family="Arial,Arial_MSFontService,sans-serif" font-weight="400" font-size="8" transform="matrix(0.779998 0 0 0.780018 23.409 240)">Standard <tspan font-size="8" x="-4.16667" y="8.97415">Component </tspan><tspan font-size="8" x="3.95833" y="17.9483">Report</tspan></text><path d="M126.36 283.139C126.36 280.554 128.455 278.459 131.04 278.459L166.14 278.459C168.725 278.459 170.82 280.554 170.82 283.139L170.82 301.859C170.82 304.444 168.725 306.539 166.14 306.539L131.04 306.539C128.455 306.539 126.36 304.444 126.36 301.859Z" stroke="#00B0F0" stroke-width="0.779998" fill="#009999" fill-rule="evenodd" transform="matrix(1 0 0 1.00003 -17.9961 -48.0039)"/><text fill="#FFFFFF" font-family="Arial,Arial_MSFontService,sans-serif" font-weight="400" font-size="8" transform="matrix(0.779998 0 0 0.780018 124.52 243)">Door <tspan font-size="8" x="-3.12501" y="8.97415">Report</tspan></text><path d="M77.9998 283.139C77.9998 280.554 80.0949 278.459 82.6798 278.459L117.78 278.459C120.365 278.459 122.46 280.554 122.46 283.139L122.46 301.859C122.46 304.444 120.365 306.539 117.78 306.539L82.6798 306.539C80.0949 306.539 77.9998 304.444 77.9998 301.859Z" stroke="#00B0F0" stroke-width="0.779998" fill="#009999" fill-rule="evenodd" transform="matrix(1 0 0 1.00003 -17.9961 -48.0039)"/><text fill="#FFFFFF" font-family="Arial,Arial_MSFontService,sans-serif" font-weight="400" font-size="8" transform="matrix(0.779998 0 0 0.780018 67.3622 243)">Interlocking <tspan font-size="8" x="7.91667" y="8.97415">Report</tspan></text><path d="M32.7599 173.94C32.7599 171.355 34.8553 169.26 37.44 169.26L75.6597 169.26C78.2447 169.26 80.3398 171.355 80.3398 173.94L80.3398 192.66C80.3398 195.244 78.2447 197.34 75.6597 197.34L37.44 197.34C34.8553 197.34 32.7599 195.244 32.7599 192.66Z" stroke="#00B0F0" stroke-width="0.779998" fill="#009999" fill-rule="evenodd" transform="matrix(1 0 0 1.00003 -17.9961 -48.0039)"/><text fill="#FFFFFF" font-family="Arial,Arial_MSFontService,sans-serif" font-weight="400" font-size="8" transform="matrix(0.779998 0 0 0.780018 22.817 138)">UI Template</text><path d="M84.2398 173.94C84.2398 171.355 86.3349 169.26 88.9198 169.26L126.36 169.26C128.945 169.26 131.04 171.355 131.04 173.94L131.04 192.66C131.04 195.244 128.945 197.34 126.36 197.34L88.9198 197.34C86.3349 197.34 84.2398 195.244 84.2398 192.66Z" stroke="#00B0F0" stroke-width="0.779998" fill="#009999" fill-rule="evenodd" transform="matrix(1 0 0 1.00003 -17.9961 -48.0039)"/><text fill="#FFFFFF" font-family="Arial,Arial_MSFontService,sans-serif" font-weight="400" font-size="8" transform="matrix(0.779998 0 0 0.780018 76.1379 138)">Data Load</text><path d="M134.16 173.029C134.16 170.517 136.197 168.48 138.709 168.48L183.43 168.48C185.942 168.48 187.98 170.517 187.98 173.029L187.98 191.23C187.98 193.742 185.942 195.78 183.43 195.78L138.709 195.78C136.197 195.78 134.16 193.742 134.16 191.23Z" stroke="#00B0F0" stroke-width="0.779998" fill="#009999" fill-rule="evenodd" transform="matrix(1 0 0 1.00003 -17.9961 -48.0039)"/><text fill="#FFFFFF" font-family="Arial,Arial_MSFontService,sans-serif" font-weight="400" font-size="6" transform="matrix(0.779998 0 0 0.780018 125.434 127)">Identify train<tspan font-size="6" x="32" y="0">/</tspan>sub<tspan font-size="6" x="43" y="0">-</tspan><tspan font-size="6" x="-2.29167" y="7.69213">system of concern </tspan><tspan font-size="6" x="6.09167" y="14.1022">via heatmap</tspan></text><path d="M32.7599 207.349C32.7599 204.837 34.797 202.799 37.31 202.799L75.7898 202.799C78.3024 202.799 80.3398 204.837 80.3398 207.349L80.3398 225.55C80.3398 228.062 78.3024 230.099 75.7898 230.099L37.31 230.099C34.797 230.099 32.7599 228.062 32.7599 225.55Z" stroke="#00B0F0" stroke-width="0.779998" fill="#009999" fill-rule="evenodd" transform="matrix(1 0 0 1.00003 -17.9961 -48.0039)"/><text fill="#FFFFFF" font-family="Arial,Arial_MSFontService,sans-serif" font-weight="400" font-size="7" transform="matrix(0.779998 0 0 0.780018 31.917 160)">Health <tspan font-size="7" x="-10.625" y="8.97415">prediction for </tspan><tspan font-size="7" x="-9.47917" y="16.6663">asset </tspan>(<tspan font-size="7" x="12.5208" y="16.6663">traffic </tspan><tspan font-size="7" x="2.60417" y="25.6404">light</tspan></text><path d="M84.2398 207.349C84.2398 204.837 86.2771 202.799 88.7895 202.799L127.27 202.799C129.782 202.799 131.82 204.837 131.82 207.349L131.82 225.55C131.82 228.062 129.782 230.099 127.27 230.099L88.7895 230.099C86.2771 230.099 84.2398 228.062 84.2398 225.55Z" stroke="#00B0F0" stroke-width="0.779998" fill="#009999" fill-rule="evenodd" transform="matrix(1 0 0 1.00003 -17.9961 -48.0039)"/><text fill="#FFFFFF" font-family="Arial,Arial_MSFontService,sans-serif" font-weight="400" font-size="8" transform="matrix(0.779998 0 0 0.780018 85.2538 170)">KPI</text><path d="M32.7599 132.08C32.7599 128.92 35.321 126.36 38.4801 126.36L176.019 126.36C179.179 126.36 181.74 128.92 181.74 132.08L181.74 154.959C181.74 158.119 179.179 160.68 176.019 160.68L38.4801 160.68C35.321 160.68 32.7599 158.119 32.7599 154.959Z" stroke="#00B0F0" stroke-width="0.779998" fill="#009999" fill-rule="evenodd" transform="matrix(1 0 0 1.00003 -17.9961 -48.0039)"/><text fill="#FFFFFF" font-family="Arial,Arial_MSFontService,sans-serif" font-weight="700" font-size="8" transform="matrix(0.779998 0 0 0.780018 22.2566 94)">All visualization charts<tspan font-size="8" x="83" y="0">:</tspan><tspan font-size="8" x="0" y="8.97415">Map </tspan><tspan font-size="8" x="18" y="8.97415">/ </tspan>Line / Pie <tspan font-size="8" x="57" y="8.97415">/ </tspan><tspan font-size="8" x="61" y="8.97415">Bar </tspan>/ <tspan font-size="8" x="80" y="8.97415">Table </tspan>/ 3D/Dark Themes</text><path d="M135.72 207.349C135.72 204.837 137.757 202.799 140.269 202.799L177.97 202.799C180.482 202.799 182.52 204.837 182.52 207.349L182.52 225.55C182.52 228.062 180.482 230.099 177.97 230.099L140.269 230.099C137.757 230.099 135.72 228.062 135.72 225.55Z" stroke="#00B0F0" stroke-width="0.779998" fill="#009999" fill-rule="evenodd" transform="matrix(1 0 0 1.00003 -17.9961 -48.0039)"/><text fill="#FFFFFF" font-family="Arial,Arial_MSFontService,sans-serif" font-weight="400" font-size="7" transform="matrix(0.779998 0 0 0.780018 134.651 161)">Asset <tspan font-size="7" x="-5.8875" y="7.69213">Reliability </tspan><tspan font-size="7" x="-10.7833" y="16.6663">Performance </tspan><tspan font-size="7" x="-5.36667" y="24.3584">over time</tspan></text><path d="M294.059 283.139C294.059 280.554 296.154 278.459 298.739 278.459L333.059 278.459C335.644 278.459 337.739 280.554 337.739 283.139L337.739 301.859C337.739 304.444 335.644 306.539 333.059 306.539L298.739 306.539C296.154 306.539 294.059 304.444 294.059 301.859Z" stroke="#00B0F0" stroke-width="0.779998" fill="#009999" fill-rule="evenodd" transform="matrix(1 0 0 1.00003 -17.9961 -48.0039)"/><text fill="#FFFFFF" font-family="Arial,Arial_MSFontService,sans-serif" font-weight="400" font-size="8" transform="matrix(0.779998 0 0 0.780018 289.371 241)">Switch <tspan font-size="8" x="-0.416683" y="8.97415">Toogle </tspan><tspan font-size="8" x="0.833288" y="17.9483">Times</tspan></text><path d="M238.679 283.139C238.679 280.554 240.774 278.459 243.359 278.459L278.459 278.459C281.044 278.459 283.139 280.554 283.139 283.139L283.139 301.859C283.139 304.444 281.044 306.539 278.459 306.539L243.359 306.539C240.774 306.539 238.679 304.444 238.679 301.859Z" stroke="#00B0F0" stroke-width="0.779998" fill="#009999" fill-rule="evenodd" transform="matrix(1 0 0 1.00003 -17.9961 -48.0039)"/><text fill="#FFFFFF" font-family="Arial,Arial_MSFontService,sans-serif" font-weight="400" font-size="8" transform="matrix(0.779998 0 0 0.780018 227.538 241)">Door <tspan font-size="8" x="0" y="8.97415">Anomalies</tspan></text><path d="M294.059 127.92C294.059 125.335 296.154 123.24 298.739 123.24L336.179 123.24C338.764 123.24 340.859 125.335 340.859 127.92L340.859 146.64C340.859 149.225 338.764 151.32 336.179 151.32L298.739 151.32C296.154 151.32 294.059 149.225 294.059 146.64Z" stroke="#00B0F0" stroke-width="0.779998" fill="#009999" fill-rule="evenodd" transform="matrix(1 0 0 1.00003 -17.9961 -48.0039)"/><text fill="#FFFFFF" font-family="Arial,Arial_MSFontService,sans-serif" font-weight="400" font-size="8" transform="matrix(0.779998 0 0 0.780018 284.436 88)">Time series <tspan font-size="8" x="2.29172" y="8.97415">anomalies</tspan></text><path d="M240.239 166.14C240.239 163.555 242.334 161.46 244.919 161.46L282.359 161.46C284.944 161.46 287.039 163.555 287.039 166.14L287.039 184.86C287.039 187.444 284.944 189.54 282.359 189.54L244.919 189.54C242.334 189.54 240.239 187.444 240.239 184.86Z" stroke="#00B0F0" stroke-width="0.779998" fill="#009999" fill-rule="evenodd" transform="matrix(1 0 0 1.00003 -17.9961 -48.0039)"/><text fill="#FFFFFF" font-family="Arial,Arial_MSFontService,sans-serif" font-weight="400" font-size="8" transform="matrix(0.779998 0 0 0.780018 230.62 123)">Diagnostics <tspan font-size="8" x="9.79169" y="8.97415">Event </tspan><tspan font-size="8" x="2.29168" y="17.9483">anomalies</tspan></text><path d="M348.659 126.36C348.659 123.775 350.754 121.68 353.339 121.68L391.559 121.68C394.144 121.68 396.239 123.775 396.239 126.36L396.239 145.08C396.239 147.665 394.144 149.76 391.559 149.76L353.339 149.76C350.754 149.76 348.659 147.665 348.659 145.08Z" stroke="#00B0F0" stroke-width="0.779998" fill="#009999" fill-rule="evenodd" transform="matrix(1 0 0 1.00003 -17.9961 -48.0039)"/><text fill="#FFFFFF" font-family="Arial,Arial_MSFontService,sans-serif" font-weight="400" font-size="8" transform="matrix(0.779998 0 0 0.780018 340.691 82)">Sequential <tspan font-size="8" x="5.62499" y="8.97415">Pattern </tspan><tspan font-size="8" x="6.66666" y="17.9483">Mining</tspan></text><path d="M405.599 158.34C405.599 155.755 407.694 153.66 410.279 153.66L448.499 153.66C451.084 153.66 453.179 155.755 453.179 158.34L453.179 177.06C453.179 179.644 451.084 181.74 448.499 181.74L410.279 181.74C407.694 181.74 405.599 179.644 405.599 177.06Z" stroke="#00B0F0" stroke-width="0.779998" fill="#009999" fill-rule="evenodd" transform="matrix(1 0 0 1.00003 -17.9961 -48.0039)"/><text fill="#FFFFFF" font-family="Arial,Arial_MSFontService,sans-serif" font-weight="400" font-size="8" transform="matrix(0.779998 0 0 0.780018 403.895 115)">Asset <tspan font-size="8" x="-6.6667" y="8.97415">Reliability </tspan><tspan font-size="8" x="-0.833328" y="17.9483">Model</tspan></text><path d="M349.439 159.12C349.439 156.535 351.534 154.44 354.119 154.44L391.559 154.44C394.144 154.44 396.239 156.535 396.239 159.12L396.239 177.84C396.239 180.424 394.144 182.52 391.559 182.52L354.119 182.52C351.534 182.52 349.439 180.424 349.439 177.84Z" stroke="#00B0F0" stroke-width="0.779998" fill="#009999" fill-rule="evenodd" transform="matrix(1 0 0 1.00003 -17.9961 -48.0039)"/><text fill="#FFFFFF" font-family="Arial,Arial_MSFontService,sans-serif" font-weight="400" font-size="8" transform="matrix(0.779998 0 0 0.780018 347.465 115)">Asset <tspan font-size="8" x="-2.50002" y="8.97415">Budget </tspan><tspan font-size="8" x="-6.875" y="17.9483">prediction</tspan></text><path d="M349.439 223.079C349.439 220.495 351.534 218.399 354.119 218.399L392.339 218.399C394.924 218.399 397.019 220.495 397.019 223.079L397.019 241.799C397.019 244.384 394.924 246.479 392.339 246.479L354.119 246.479C351.534 246.479 349.439 244.384 349.439 241.799Z" stroke="#00B0F0" stroke-width="0.779998" fill="#009999" fill-rule="evenodd" transform="matrix(1 0 0 1.00003 -17.9961 -48.0039)"/><text fill="#FFFFFF" font-family="Arial,Arial_MSFontService,sans-serif" font-weight="400" font-size="8" transform="matrix(0.779998 0 0 0.780018 348.075 180)">Asset <tspan font-size="8" x="-5.41669" y="8.97415">Strategic </tspan><tspan font-size="8" x="-11.4583" y="17.9483">Optimization</tspan></text><path d="M405.599 191.1C405.599 188.515 407.694 186.42 410.279 186.42L448.499 186.42C451.084 186.42 453.179 188.515 453.179 191.1L453.179 209.819C453.179 212.404 451.084 214.499 448.499 214.499L410.279 214.499C407.694 214.499 405.599 212.404 405.599 209.819Z" stroke="#00B0F0" stroke-width="0.779998" fill="#009999" fill-rule="evenodd" transform="matrix(1 0 0 1.00003 -17.9961 -48.0039)"/><text fill="#FFFFFF" font-family="Arial,Arial_MSFontService,sans-serif" font-weight="400" font-size="8" transform="matrix(0.779998 0 0 0.780018 398.751 151)">Economic <tspan font-size="8" x="0.208381" y="8.97415">end of life</tspan></text><path d="M349.439 190.32C349.439 187.735 351.534 185.64 354.119 185.64L391.559 185.64C394.144 185.64 396.239 187.735 396.239 190.32L396.239 209.039C396.239 211.624 394.144 213.719 391.559 213.719L354.119 213.719C351.534 213.719 349.439 211.624 349.439 209.039Z" stroke="#00B0F0" stroke-width="0.779998" fill="#009999" fill-rule="evenodd" transform="matrix(1 0 0 1.00003 -17.9961 -48.0039)"/><text fill="#FFFFFF" font-family="Arial,Arial_MSFontService,sans-serif" font-weight="400" font-size="8" transform="matrix(0.779998 0 0 0.780018 343.565 146)">Decision <tspan font-size="8" x="-6.45836" y="8.97415">Optimization </tspan><tspan font-size="8" x="4.16664" y="17.9483">Model</tspan></text><path d="M291.719 166.14C291.719 163.555 293.814 161.46 296.399 161.46L334.619 161.46C337.204 161.46 339.299 163.555 339.299 166.14L339.299 184.86C339.299 187.444 337.204 189.54 334.619 189.54L296.399 189.54C293.814 189.54 291.719 187.444 291.719 184.86Z" stroke="#00B0F0" stroke-width="0.779998" fill="#009999" fill-rule="evenodd" transform="matrix(1 0 0 1.00003 -17.9961 -48.0039)"/><text fill="#FFFFFF" font-family="Arial,Arial_MSFontService,sans-serif" font-weight="400" font-size="8" transform="matrix(0.779998 0 0 0.780018 288.484 126)">Failure <tspan font-size="8" x="-6.45836" y="8.97415">Signatures</tspan></text><path d="M173.94 283.139C173.94 280.554 176.035 278.459 178.62 278.459L212.939 278.459C215.524 278.459 217.619 280.554 217.619 283.139L217.619 301.859C217.619 304.444 215.524 306.539 212.939 306.539L178.62 306.539C176.035 306.539 173.94 304.444 173.94 301.859Z" stroke="#00B0F0" stroke-width="0.779998" fill="#009999" fill-rule="evenodd" transform="matrix(1 0 0 1.00003 -17.9961 -48.0039)"/><text fill="#FFFFFF" font-family="Arial,Arial_MSFontService,sans-serif" font-weight="400" font-size="7" transform="matrix(0.779998 0 0 0.780018 165.023 240)">Refactored <tspan font-size="7" x="4.53332" y="7.69213">REAMS </tspan><tspan font-size="7" x="-1.66667" y="15.3843">Applications</tspan></text><path d="M349.439 283.139C349.439 280.554 351.534 278.459 354.119 278.459L388.439 278.459C391.024 278.459 393.119 280.554 393.119 283.139L393.119 301.859C393.119 304.444 391.024 306.539 388.439 306.539L354.119 306.539C351.534 306.539 349.439 304.444 349.439 301.859Z" stroke="#00B0F0" stroke-width="0.779998" fill="#009999" fill-rule="evenodd" transform="matrix(1 0 0 1.00003 -17.9961 -48.0039)"/><path d="M404.039 283.139C404.039 280.554 406.134 278.459 408.719 278.459L443.819 278.459C446.404 278.459 448.499 280.554 448.499 283.139L448.499 301.859C448.499 304.444 446.404 306.539 443.819 306.539L408.719 306.539C406.134 306.539 404.039 304.444 404.039 301.859Z" stroke="#00B0F0" stroke-width="0.779998" fill="#009999" fill-rule="evenodd" transform="matrix(1 0 0 1.00003 -17.9961 -48.0039)"/><path d="M404.039 125.58C404.039 122.995 406.134 120.9 408.719 120.9L446.939 120.9C449.524 120.9 451.619 122.995 451.619 125.58L451.619 144.3C451.619 146.885 449.524 148.98 446.939 148.98L408.719 148.98C406.134 148.98 404.039 146.885 404.039 144.3Z" stroke="#00B0F0" stroke-width="0.779998" fill="#009999" fill-rule="evenodd" transform="matrix(1 0 0 1.00003 -17.9961 -48.0039)"/><text fill="#FFFFFF" font-family="Arial,Arial_MSFontService,sans-serif" font-weight="400" font-size="8" transform="matrix(0.779998 0 0 0.780018 393.432 85)">Asset Health <tspan font-size="8" x="11.0416" y="8.97415">Model</tspan></text><path d="M238.679 120.9 345.539 120.9 345.539 246.479 238.679 246.479Z" stroke="#00B0F0" stroke-width="1.4625" stroke-miterlimit="8" fill="none" transform="matrix(1 0 0 1.00003 -17.9961 -48.0039)"/><text fill="#FFFFFF" font-family="Arial,Arial_MSFontService,sans-serif" font-weight="400" font-size="10" transform="matrix(0.779998 0 0 0.780018 226.172 85)">Anomaly<tspan font-size="10" x="0" y="11.5382">Detection</tspan></text><path d="M405.599 223.079C405.599 220.495 407.694 218.399 410.279 218.399L448.499 218.399C451.084 218.399 453.179 220.495 453.179 223.079L453.179 241.799C453.179 244.384 451.084 246.479 448.499 246.479L410.279 246.479C407.694 246.479 405.599 244.384 405.599 241.799Z" stroke="#00B0F0" stroke-width="0.779998" fill="#009999" fill-rule="evenodd" transform="matrix(1 0 0 1.00003 -17.9961 -48.0039)"/><text fill="#FFFFFF" font-family="Arial,Arial_MSFontService,sans-serif" font-weight="400" font-size="8" transform="matrix(0.779998 0 0 0.780018 404.183 179)">Asset <tspan font-size="8" x="-9.79171" y="8.97415">Warehouse </tspan><tspan font-size="8" x="-11.4583" y="17.9483">Optimization</tspan><tspan font-size="8" x="-462.328" y="143.586">Restricted </tspan>| © Siemens Mobility <tspan font-size="8" x="-352.328" y="143.586">2021 </tspan><tspan font-size="8" x="-334.328" y="143.586">| </tspan>Michael Taylor | SMO ASP RAC | 2021<tspan font-size="8" x="-203.474" y="143.586">-</tspan>08<tspan font-size="8" x="-192.641" y="143.586">-</tspan><tspan font-size="8" x="-190.141" y="143.586">27</tspan></text><path d="M240.239 204.1C240.239 202.089 241.869 200.46 243.88 200.46L283.399 200.46C285.41 200.46 287.039 202.089 287.039 204.1L287.039 218.659C287.039 220.67 285.41 222.299 283.399 222.299L243.88 222.299C241.869 222.299 240.239 220.67 240.239 218.659Z" stroke="#00B0F0" stroke-width="0.779998" fill="#009999" fill-rule="evenodd" transform="matrix(1 0 0 1.00003 -17.9961 -48.0039)"/></g></svg>